<svg width="48" height="48" viewBox="0 0 48 48" fill="none" xmlns="http://www.w3.org/2000/svg">
<rect width="48" height="48" fill="white"/>
<path d="M24 13L24.0101 19" stroke="#152C5B" stroke-width="3" stroke-linecap="round"/>
<mask id="path-2-inside-1" fill="white">
<path d="M24 14C21.7909 14 20 12.2091 20 10L20 5C20 4.44772 20.4477 4 21 4L27 4C27.5523 4 28 4.44772 28 5L28 10C28 12.2091 26.2091 14 24 14Z"/>
</mask>
<path d="M24 14C21.7909 14 20 12.2091 20 10L20 5C20 4.44772 20.4477 4 21 4L27 4C27.5523 4 28 4.44772 28 5L28 10C28 12.2091 26.2091 14 24 14Z" stroke="#3252DF" stroke-width="6" mask="url(#path-2-inside-1)"/>
<path d="M6.23607 20.882C6.65955 20.035 7.52521 19.5 8.47214 19.5H39.5279C40.4748 19.5 41.3405 20.035 41.7639 20.882L43.7639 24.882C44.5951 26.5442 43.3863 28.5 41.5279 28.5H6.47214C4.61368 28.5 3.40494 26.5442 4.23607 24.882L6.23607 20.882Z" stroke="#152C5B" stroke-width="3"/>
<mask id="path-4-inside-2" fill="white">
<path d="M9 46C11.2091 46 13 44.2091 13 42L13 28C13 27.4477 12.5523 27 12 27L6 27C5.44772 27 5 27.4477 5 28L5 42C5 44.2091 6.79086 46 9 46Z"/>
</mask>
<path d="M9 46C11.2091 46 13 44.2091 13 42L13 28C13 27.4477 12.5523 27 12 27L6 27C5.44772 27 5 27.4477 5 28L5 42C5 44.2091 6.79086 46 9 46Z" stroke="#152C5B" stroke-width="6" mask="url(#path-4-inside-2)"/>
<mask id="path-5-inside-3" fill="white">
<path d="M39 46C36.7909 46 35 44.2091 35 42L35 28C35 27.4477 35.4477 27 36 27L42 27C42.5523 27 43 27.4477 43 28L43 42C43 44.2091 41.2091 46 39 46Z"/>
</mask>
<path d="M39 46C36.7909 46 35 44.2091 35 42L35 28C35 27.4477 35.4477 27 36 27L42 27C42.5523 27 43 27.4477 43 28L43 42C43 44.2091 41.2091 46 39 46Z" stroke="#152C5B" stroke-width="6" mask="url(#path-5-inside-3)"/>
</svg>
